The BBC's award winning documentary looking at the impact the death of Ayrton Senna had upon the world of motor racing. Featuring interviews with key people from Senna's life in motor sport. 

SCREENCAPS: 
https://yuq.me/u/912008/TUemzWFRwb.png


Video
ID : 1
Format : AVC
Format/Info : Advanced Video Codec
Format profile : Baseline@L3.0
Format settings, CABAC : No
Format settings, ReFrames : 1 frame
Format settings, GOP : M=1, N=120
Codec ID : avc1
Codec ID/Info : Advanced Video Coding
Duration : 49mn 17s
Bit rate mode : Variable
Bit rate : 1 503 Kbps
Maximum bit rate : 4 006 Kbps
Width : 640 pixels
Height : 480 pixels
Display aspect ratio : 4:3
Frame rate mode : Constant
Frame rate : 25.000 fps
Color space : YUV
Chroma subsampling : 4:2:0
Bit depth : 8 bits
Scan type : Progressive
Bits/(Pixel*Frame) : 0.196
Stream size : 530 MiB (93%)
Language : English
Encoded date : UTC 2012-12-20 12:03:15
Tagged date : UTC 2012-12-20 12:41:59
Color primaries : BT.601 NTSC
Transfer characteristics : BT.709
Matrix coefficients : BT.601

Audio
ID : 2
Format : AAC
Format/Info : Advanced Audio Codec
Format profile : LC
Codec ID : 40
Duration : 49mn 17s
Bit rate mode : Constant
Bit rate : 106 Kbps
Nominal bit rate : 128 Kbps
Channel(s) : 2 channels
Channel positions : Front: L R
Sampling rate : 44.1 KHz
Compression mode : Lossy
Stream size : 37.5 MiB (7%)
Language : English 